<svg xmlns="http://www.w3.org/2000/svg" viewBox="0 0 100 100" width="100" height="100">
  <defs>
    <linearGradient id="phantomGradient" x1="0%" y1="0%" x2="100%" y2="100%">
      <stop offset="0%" style="stop-color:#AB9FF2;stop-opacity:1" />
      <stop offset="100%" style="stop-color:#4C1D95;stop-opacity:1" />
    </linearGradient>
  </defs>
  
  <!-- Ghost Body -->
  <path d="M25 20 Q25 15 30 15 L70 15 Q75 15 75 20 L75 60 Q75 65 70 65 L65 65 L65 75 L60 70 L55 75 L50 70 L45 75 L40 70 L35 75 L30 70 Q25 65 25 60 Z" fill="url(#phantomGradient)" />
  
  <!-- Eyes -->
  <circle cx="40" cy="35" r="4" fill="white" />
  <circle cx="60" cy="35" r="4" fill="white" />
  
  <!-- Pupils -->
  <circle cx="40" cy="35" r="2" fill="#1F2937" />
  <circle cx="60" cy="35" r="2" fill="#1F2937" />
  
  <!-- Mouth -->
  <ellipse cx="50" cy="50" rx="8" ry="4" fill="white" />
  <ellipse cx="50" cy="48" rx="6" ry="2" fill="#1F2937" />
</svg> 