<svg xmlns="http://www.w3.org/2000/svg" viewBox="0 0 100 100" width="100" height="100">
  <defs>
    <linearGradient id="walletGradient" x1="0%" y1="0%" x2="100%" y2="100%">
      <stop offset="0%" style="stop-color:#3B82F6;stop-opacity:1" />
      <stop offset="100%" style="stop-color:#1D4ED8;stop-opacity:1" />
    </linearGradient>
  </defs>
  
  <!-- Wallet Body -->
  <rect x="20" y="30" width="60" height="40" rx="4" ry="4" fill="url(#walletGradient)" />
  
  <!-- Wallet Flap -->
  <path d="M20 30 L20 25 Q20 20 25 20 L75 20 Q80 20 80 25 L80 35 Q80 30 75 30 L25 30 Q20 30 20 30" fill="url(#walletGradient)" opacity="0.8" />
  
  <!-- Card Slot -->
  <rect x="25" y="35" width="35" height="20" rx="2" ry="2" fill="rgba(255,255,255,0.2)" />
  
  <!-- Card -->
  <rect x="27" y="37" width="31" height="16" rx="1.5" ry="1.5" fill="rgba(255,255,255,0.9)" />
  
  <!-- Card Details -->
  <rect x="29" y="39" width="12" height="2" rx="1" ry="1" fill="rgba(0,0,0,0.3)" />
  <rect x="29" y="42" width="8" height="1.5" rx="0.75" ry="0.75" fill="rgba(0,0,0,0.2)" />
  <rect x="29" y="44.5" width="15" height="1.5" rx="0.75" ry="0.75" fill="rgba(0,0,0,0.2)" />
  
  <!-- Coin -->
  <circle cx="70" cy="45" r="8" fill="#F59E0B" />
  <circle cx="70" cy="45" r="6" fill="#FBBF24" />
  <text x="70" y="49" text-anchor="middle" font-family="Arial, sans-serif" font-size="8" font-weight="bold" fill="#92400E">S</text>
</svg> 